<svg width="108" height="17" viewBox="0 0 108 17" fill="none" xmlns="http://www.w3.org/2000/svg">
<path d="M7.68133 16.2632C3.42702 16.2632 0.0060321 12.7325 0.0060321 8.45628C0.0060321 4.18004 3.42702 0.627478 7.68133 0.627478C10.1594 0.627478 12.3304 1.78974 13.69 3.56602L11.6725 5.10108C10.7514 3.89496 9.39182 3.12743 7.74712 3.12743C4.87436 3.12743 2.70335 5.5616 2.70335 8.45628C2.70335 11.351 4.8305 13.7632 7.74712 13.7632C9.39182 13.7632 10.7514 12.9957 11.6725 11.7896L13.69 13.3246C12.3304 15.1009 10.1594 16.2632 7.68133 16.2632ZM17.688 16H15.1442V0.18889H17.688V16ZM24.8569 16.2632C21.9402 16.2632 19.4184 14.1141 19.4184 10.8685C19.4184 7.62296 21.9402 5.49581 24.8569 5.49581C27.7735 5.49581 30.3173 7.62296 30.3173 10.8685C30.3173 14.1141 27.7735 16.2632 24.8569 16.2632ZM24.8569 13.8948C26.4358 13.8948 27.7515 12.6667 27.7515 10.8685C27.7515 9.11416 26.4358 7.86419 24.8569 7.86419C23.2779 7.86419 21.9841 9.11416 21.9841 10.8685C21.9841 12.6667 23.2779 13.8948 24.8569 13.8948ZM39.202 11.2413V5.75896H41.7458V16H39.202V14.3992C38.6756 15.693 37.0529 16.2632 36.0222 16.2632C33.3907 16.2632 31.9214 14.4869 31.9214 11.5045V5.75896H34.4652V11.3948C34.4652 13.0395 35.452 13.8948 36.5924 13.8948C37.7546 13.8948 39.202 13.2369 39.202 11.2413ZM51.9447 7.09666V0.18889H54.4885V16H51.9447V14.6404C51.2429 15.7149 49.7956 16.2632 48.5456 16.2632C45.8483 16.2632 43.5018 14.136 43.5018 10.8685C43.5018 7.5791 45.8264 5.49581 48.5237 5.49581C49.8175 5.49581 51.2429 6.02212 51.9447 7.09666ZM48.9403 13.8948C50.4973 13.8948 51.9008 12.6448 51.9008 10.8466C51.9008 9.04837 50.4096 7.86419 48.9403 7.86419C47.3614 7.86419 46.0676 9.13609 46.0676 10.8466C46.0676 12.5571 47.3614 13.8948 48.9403 13.8948ZM62.5876 5.49581C65.4604 5.49581 67.7849 7.75454 67.7849 10.8685C67.7849 13.9825 65.4604 16.2632 62.5876 16.2632C60.8771 16.2632 59.2543 15.386 58.5087 13.9825V16H57.1053V0.18889H58.5087V7.75454C59.2763 6.35106 60.8552 5.49581 62.5876 5.49581ZM62.478 14.9255C64.649 14.9255 66.4033 13.1272 66.4033 10.8466C66.4033 8.58786 64.649 6.8335 62.478 6.8335C60.4385 6.8335 58.5087 8.43435 58.5087 10.9124C58.5087 13.2808 60.3508 14.9255 62.478 14.9255ZM74.5882 16.2632C71.6715 16.2632 69.2374 14.1141 69.2374 10.8685C69.2374 7.62296 71.6715 5.49581 74.5882 5.49581C77.5048 5.49581 79.9609 7.62296 79.9609 10.8685C79.9609 14.1141 77.5048 16.2632 74.5882 16.2632ZM74.5882 14.9255C76.7372 14.9255 78.5574 13.2808 78.5574 10.8685C78.5574 8.45628 76.7372 6.8335 74.5882 6.8335C72.4171 6.8335 70.6409 8.45628 70.6409 10.8685C70.6409 13.2808 72.4171 14.9255 74.5882 14.9255ZM86.7367 16.2632C83.8201 16.2632 81.3859 14.1141 81.3859 10.8685C81.3859 7.62296 83.8201 5.49581 86.7367 5.49581C89.6533 5.49581 92.1094 7.62296 92.1094 10.8685C92.1094 14.1141 89.6533 16.2632 86.7367 16.2632ZM86.7367 14.9255C88.8858 14.9255 90.7059 13.2808 90.7059 10.8685C90.7059 8.45628 88.8858 6.8335 86.7367 6.8335C84.5657 6.8335 82.7894 8.45628 82.7894 10.8685C82.7894 13.2808 84.5657 14.9255 86.7367 14.9255ZM97.1309 16.2632C95.3546 16.2632 93.5783 15.2325 93.4029 13.2808H94.6967C94.8502 14.136 95.6397 15.0132 97.1309 15.0132C98.6002 15.0132 99.4993 14.2456 99.4993 13.215C99.4993 12.3816 98.9291 11.8334 97.8765 11.5703L96.4072 11.2194C94.9599 10.8685 93.7976 10.1229 93.7976 8.41242C93.7976 6.74579 95.223 5.49581 97.1748 5.49581C98.8853 5.49581 100.464 6.43877 100.53 8.28084H99.1703C99.1045 7.35981 98.2054 6.74579 97.1967 6.74579C96.0125 6.74579 95.2011 7.46946 95.2011 8.43435C95.2011 9.39924 96.0344 9.8159 96.78 9.99134L98.2932 10.3641C100.289 10.8466 100.903 12.0527 100.903 13.2369C100.903 15.057 99.2581 16.2632 97.1309 16.2632ZM105.063 5.75896H107.409V6.96508H105.063V16H103.681V6.96508H101.817V5.75896H103.681V1.92131H105.063V5.75896Z" fill="white"/>
</svg>
