<svg width="1200" height="628" viewBox="0 0 1200 628" fill="none" xmlns="http://www.w3.org/2000/svg">
<rect width="1200" height="628" rx="4" fill="#130253"/>
<path d="M500.183 312.532C506.966 313.906 510.438 320.292 510.438 326.435C510.438 334.275 504.866 342.277 493.32 342.277H469.986V286.586H491.625C501.314 286.586 507.45 292.406 507.45 300.893C507.45 305.258 505.835 310.511 500.183 312.532ZM497.6 302.267C497.6 298.387 495.5 295.397 491.221 295.397H479.837V309.057H491.221C495.339 309.057 497.6 306.308 497.6 302.267ZM479.837 333.467H491.786C497.519 333.467 500.506 329.668 500.506 325.465C500.506 321.504 497.923 317.382 492.029 317.382H479.837V333.467Z" fill="white"/>
<path d="M546.028 309.784V304.53H555.394V342.277H546.028V336.376C543.525 340.499 538.519 343.247 533.109 343.247C523.016 343.247 514.942 335.083 514.942 323.363C514.942 311.966 522.693 303.56 533.351 303.56C538.519 303.56 543.525 305.823 546.028 309.784ZM535.047 334.517C540.86 334.517 545.866 329.668 545.866 323.363C545.866 316.897 540.537 312.29 534.966 312.29C528.91 312.29 524.308 317.301 524.308 323.363C524.308 329.425 528.91 334.517 535.047 334.517Z" fill="white"/>
<path d="M585.214 303.56C594.903 303.56 600.313 310.107 600.313 321.1V342.277H590.947V321.747C590.947 315.684 587.313 312.451 583.115 312.451C578.835 312.451 573.506 314.957 573.506 322.231V342.277H564.14V304.53H573.506V310.511C575.444 305.743 581.338 303.56 585.214 303.56Z" fill="white"/>
<path d="M625.591 321.019L644.485 342.277H632.616L617.921 325.141V342.277H608.555V284H617.921V316.574L628.74 304.53H640.932L625.591 321.019Z" fill="white"/>
<path d="M667.971 303.56C678.548 303.56 687.107 311.886 687.107 323.363C687.107 334.841 678.548 343.247 667.971 343.247C661.673 343.247 655.698 340.014 652.953 334.841V342.277H647.786V284H652.953V311.886C655.779 306.713 661.592 303.56 667.971 303.56ZM667.567 338.316C675.561 338.316 682.02 331.688 682.02 323.282C682.02 314.957 675.561 308.491 667.567 308.491C660.058 308.491 652.953 314.391 652.953 323.525C652.953 332.254 659.735 338.316 667.567 338.316Z" fill="white"/>
<path d="M712.156 343.247C701.417 343.247 692.455 335.326 692.455 323.363C692.455 311.401 701.417 303.56 712.156 303.56C722.894 303.56 731.937 311.401 731.937 323.363C731.937 335.326 722.894 343.247 712.156 343.247ZM712.156 338.316C720.068 338.316 726.77 332.254 726.77 323.363C726.77 314.472 720.068 308.491 712.156 308.491C704.162 308.491 697.622 314.472 697.622 323.363C697.622 332.254 704.162 338.316 712.156 338.316Z" fill="white"/>
<path d="M756.885 343.247C746.147 343.247 737.184 335.326 737.184 323.363C737.184 311.401 746.147 303.56 756.885 303.56C767.624 303.56 776.667 311.401 776.667 323.363C776.667 335.326 767.624 343.247 756.885 343.247ZM756.885 338.316C764.798 338.316 771.499 332.254 771.499 323.363C771.499 314.472 764.798 308.491 756.885 308.491C748.892 308.491 742.352 314.472 742.352 323.363C742.352 332.254 748.892 338.316 756.885 338.316Z" fill="white"/>
<path d="M795.156 343.247C788.615 343.247 782.075 339.448 781.429 332.254H786.193C786.758 335.406 789.665 338.64 795.156 338.64C800.565 338.64 803.876 335.811 803.876 332.012C803.876 328.94 801.776 326.919 797.901 325.95L792.491 324.656C787.162 323.363 782.883 320.615 782.883 314.31C782.883 308.167 788.131 303.56 795.317 303.56C801.615 303.56 807.428 307.036 807.67 313.825H802.665C802.422 310.431 799.112 308.167 795.398 308.167C791.038 308.167 788.05 310.835 788.05 314.391C788.05 317.948 791.118 319.483 793.864 320.13L799.435 321.504C806.782 323.282 809.043 327.728 809.043 332.092C809.043 338.801 802.987 343.247 795.156 343.247Z" fill="white"/>
<path d="M824.361 304.53H833V308.976H824.361V342.277H819.274V308.976H812.411V304.53H819.274V290.385H824.361V304.53Z" fill="white"/>
<path d="M432.504 287.952H397.881C396.468 287.952 396.165 288.053 395.358 288.868L367.908 314.54C367.101 315.355 367 315.661 367 317.087V332.165C367 340.721 371.239 345 379.717 345H414.34C415.75 345 416.053 344.898 416.861 344.083L444.313 318.412C445.118 317.596 445.219 317.291 445.219 315.864V300.789C445.219 292.231 440.982 287.952 432.504 287.952Z" fill="white"/>
</svg>
