<svg width="202" height="63" viewBox="0 0 202 63" fill="none" xmlns="http://www.w3.org/2000/svg">
<rect width="202" height="62.5915" rx="11.3803" fill="#33303E"/>
<path d="M68.8289 24.3462C68.7367 24.3462 68.6654 24.321 68.6151 24.2707C68.5648 24.212 68.5396 24.1407 68.5396 24.0569V15.8432C68.5396 15.751 68.5648 15.6797 68.6151 15.6294C68.6654 15.5707 68.7367 15.5414 68.8289 15.5414H71.6842C72.5479 15.5414 73.2439 15.6713 73.7722 15.9313C74.3005 16.1912 74.6862 16.577 74.9294 17.0885C75.1726 17.5916 75.2984 18.2122 75.3068 18.9501C75.3151 19.3274 75.3193 19.6587 75.3193 19.9438C75.3193 20.2289 75.3151 20.5559 75.3068 20.9249C75.29 21.6964 75.16 22.3379 74.9168 22.8494C74.682 23.3525 74.3047 23.7299 73.7848 23.9814C73.2733 24.2246 72.594 24.3462 71.7471 24.3462H68.8289ZM69.7723 23.277H71.6842C72.2628 23.277 72.724 23.1974 73.0678 23.038C73.4116 22.8787 73.659 22.623 73.8099 22.2708C73.9693 21.9186 74.0531 21.4532 74.0615 20.8746C74.0783 20.623 74.0867 20.405 74.0867 20.2205C74.0867 20.0276 74.0867 19.839 74.0867 19.6545C74.0867 19.4616 74.0783 19.2436 74.0615 19.0004C74.0447 18.187 73.8519 17.5874 73.4829 17.2017C73.1139 16.8076 72.4934 16.6105 71.6213 16.6105H69.7723V23.277ZM79.7274 24.472C79.0901 24.472 78.5577 24.3504 78.13 24.1072C77.7023 23.864 77.3753 23.5286 77.1489 23.1009C76.9225 22.6649 76.7967 22.1701 76.7715 21.6167C76.7632 21.4741 76.759 21.2939 76.759 21.0758C76.759 20.8494 76.7632 20.6691 76.7715 20.535C76.7967 19.9731 76.9225 19.4784 77.1489 19.0507C77.3837 18.6231 77.7149 18.2876 78.1426 18.0445C78.5702 17.8013 79.0985 17.6797 79.7274 17.6797C80.3564 17.6797 80.8847 17.8013 81.3123 18.0445C81.74 18.2876 82.067 18.6231 82.2934 19.0507C82.5282 19.4784 82.6582 19.9731 82.6834 20.535C82.6917 20.6691 82.6959 20.8494 82.6959 21.0758C82.6959 21.2939 82.6917 21.4741 82.6834 21.6167C82.6582 22.1701 82.5324 22.6649 82.306 23.1009C82.0796 23.5286 81.7526 23.864 81.3249 24.1072C80.8972 24.3504 80.3647 24.472 79.7274 24.472ZM79.7274 23.5034C80.2474 23.5034 80.6624 23.3399 80.9727 23.0129C81.283 22.6775 81.4507 22.1911 81.4758 21.5538C81.4842 21.428 81.4884 21.2687 81.4884 21.0758C81.4884 20.883 81.4842 20.7236 81.4758 20.5979C81.4507 19.9606 81.283 19.4784 80.9727 19.1513C80.6624 18.8159 80.2474 18.6482 79.7274 18.6482C79.2075 18.6482 78.7883 18.8159 78.4696 19.1513C78.1594 19.4784 77.9958 19.9606 77.9791 20.5979C77.9707 20.7236 77.9665 20.883 77.9665 21.0758C77.9665 21.2687 77.9707 21.428 77.9791 21.5538C77.9958 22.1911 78.1594 22.6775 78.4696 23.0129C78.7883 23.3399 79.2075 23.5034 79.7274 23.5034ZM85.8348 24.3462C85.7258 24.3462 85.6419 24.321 85.5832 24.2707C85.5245 24.212 85.4742 24.1324 85.4323 24.0317L83.6462 18.1954C83.6294 18.1535 83.621 18.1115 83.621 18.0696C83.621 17.9941 83.6462 17.9313 83.6965 17.8809C83.7552 17.8306 83.8181 17.8055 83.8852 17.8055H84.4386C84.5309 17.8055 84.6021 17.8306 84.6524 17.8809C84.7028 17.9313 84.7363 17.9774 84.7531 18.0193L86.1493 22.7613L87.6461 18.0696C87.6629 18.0109 87.6964 17.9522 87.7467 17.8935C87.8054 17.8348 87.8893 17.8055 87.9983 17.8055H88.4259C88.535 17.8055 88.6188 17.8348 88.6775 17.8935C88.7362 17.9522 88.7698 18.0109 88.7781 18.0696L90.275 22.7613L91.6711 18.0193C91.6795 17.9774 91.7089 17.9313 91.7592 17.8809C91.8095 17.8306 91.8808 17.8055 91.973 17.8055H92.5265C92.6019 17.8055 92.6648 17.8306 92.7151 17.8809C92.7655 17.9313 92.7906 17.9941 92.7906 18.0696C92.7906 18.1115 92.7822 18.1535 92.7655 18.1954L90.9793 24.0317C90.9542 24.1324 90.9081 24.212 90.841 24.2707C90.7823 24.321 90.6942 24.3462 90.5768 24.3462H90.0863C89.9773 24.3462 89.885 24.321 89.8096 24.2707C89.7425 24.212 89.6964 24.1324 89.6712 24.0317L88.2121 19.5287L86.753 24.0317C86.7195 24.1324 86.6692 24.212 86.6021 24.2707C86.535 24.321 86.4428 24.3462 86.3254 24.3462H85.8348ZM94.4731 24.3462C94.3892 24.3462 94.3179 24.321 94.2592 24.2707C94.2089 24.212 94.1838 24.1407 94.1838 24.0569V18.0948C94.1838 18.0109 94.2089 17.9438 94.2592 17.8935C94.3179 17.8348 94.3892 17.8055 94.4731 17.8055H95.0642C95.1481 17.8055 95.2152 17.8348 95.2655 17.8935C95.3242 17.9438 95.3535 18.0109 95.3535 18.0948V18.6482C95.5716 18.3631 95.8441 18.1325 96.1711 17.9564C96.5066 17.7719 96.9342 17.6797 97.4541 17.6797C97.9992 17.6797 98.4604 17.8013 98.8377 18.0445C99.2235 18.2793 99.5128 18.6105 99.7056 19.0381C99.8985 19.4574 99.9949 19.948 99.9949 20.5098V24.0569C99.9949 24.1407 99.9698 24.212 99.9195 24.2707C99.8692 24.321 99.8021 24.3462 99.7182 24.3462H99.0893C99.0055 24.3462 98.9342 24.321 98.8755 24.2707C98.8252 24.212 98.8 24.1407 98.8 24.0569V20.5727C98.8 19.9857 98.6575 19.5287 98.3723 19.2017C98.0872 18.8662 97.668 18.6985 97.1145 18.6985C96.5946 18.6985 96.1753 18.8662 95.8567 19.2017C95.5464 19.5287 95.3913 19.9857 95.3913 20.5727V24.0569C95.3913 24.1407 95.3619 24.212 95.3032 24.2707C95.2529 24.321 95.1858 24.3462 95.102 24.3462H94.4731ZM102.114 24.3462C102.03 24.3462 101.959 24.321 101.9 24.2707C101.85 24.212 101.824 24.1407 101.824 24.0569V15.7049C101.824 15.621 101.85 15.5539 101.9 15.5036C101.959 15.4449 102.03 15.4156 102.114 15.4156H102.705C102.797 15.4156 102.868 15.4449 102.919 15.5036C102.969 15.5539 102.994 15.621 102.994 15.7049V24.0569C102.994 24.1407 102.969 24.212 102.919 24.2707C102.868 24.321 102.797 24.3462 102.705 24.3462H102.114ZM107.55 24.472C106.912 24.472 106.38 24.3504 105.952 24.1072C105.524 23.864 105.197 23.5286 104.971 23.1009C104.745 22.6649 104.619 22.1701 104.594 21.6167C104.585 21.4741 104.581 21.2939 104.581 21.0758C104.581 20.8494 104.585 20.6691 104.594 20.535C104.619 19.9731 104.745 19.4784 104.971 19.0507C105.206 18.6231 105.537 18.2876 105.965 18.0445C106.392 17.8013 106.921 17.6797 107.55 17.6797C108.179 17.6797 108.707 17.8013 109.134 18.0445C109.562 18.2876 109.889 18.6231 110.116 19.0507C110.35 19.4784 110.48 19.9731 110.506 20.535C110.514 20.6691 110.518 20.8494 110.518 21.0758C110.518 21.2939 110.514 21.4741 110.506 21.6167C110.48 22.1701 110.355 22.6649 110.128 23.1009C109.902 23.5286 109.575 23.864 109.147 24.1072C108.719 24.3504 108.187 24.472 107.55 24.472ZM107.55 23.5034C108.07 23.5034 108.485 23.3399 108.795 23.0129C109.105 22.6775 109.273 22.1911 109.298 21.5538C109.306 21.428 109.311 21.2687 109.311 21.0758C109.311 20.883 109.306 20.7236 109.298 20.5979C109.273 19.9606 109.105 19.4784 108.795 19.1513C108.485 18.8159 108.07 18.6482 107.55 18.6482C107.03 18.6482 106.61 18.8159 106.292 19.1513C105.982 19.4784 105.818 19.9606 105.801 20.5979C105.793 20.7236 105.789 20.883 105.789 21.0758C105.789 21.2687 105.793 21.428 105.801 21.5538C105.818 22.1911 105.982 22.6775 106.292 23.0129C106.61 23.3399 107.03 23.5034 107.55 23.5034ZM113.917 24.472C113.498 24.472 113.116 24.3881 112.772 24.2204C112.429 24.0527 112.152 23.8263 111.942 23.5412C111.733 23.2561 111.628 22.9332 111.628 22.5726C111.628 21.994 111.863 21.5328 112.332 21.189C112.802 20.8452 113.414 20.6188 114.169 20.5098L116.043 20.2457V19.8809C116.043 19.4784 115.925 19.1639 115.691 18.9375C115.464 18.7111 115.091 18.5979 114.571 18.5979C114.194 18.5979 113.888 18.6734 113.653 18.8243C113.426 18.9753 113.267 19.1681 113.175 19.4029C113.125 19.5287 113.036 19.5916 112.911 19.5916H112.345C112.252 19.5916 112.181 19.5664 112.131 19.5161C112.089 19.4574 112.068 19.3903 112.068 19.3149C112.068 19.1891 112.114 19.0339 112.206 18.8495C112.307 18.665 112.458 18.4847 112.659 18.3086C112.86 18.1325 113.116 17.9858 113.426 17.8684C113.745 17.7426 114.131 17.6797 114.584 17.6797C115.087 17.6797 115.51 17.7468 115.854 17.8809C116.198 18.0067 116.466 18.1786 116.659 18.3966C116.86 18.6147 117.003 18.862 117.087 19.1388C117.179 19.4155 117.225 19.6964 117.225 19.9815V24.0569C117.225 24.1407 117.196 24.212 117.137 24.2707C117.087 24.321 117.02 24.3462 116.936 24.3462H116.357C116.265 24.3462 116.194 24.321 116.143 24.2707C116.093 24.212 116.068 24.1407 116.068 24.0569V23.516C115.959 23.667 115.812 23.8179 115.628 23.9688C115.443 24.1114 115.213 24.233 114.936 24.3336C114.659 24.4259 114.319 24.472 113.917 24.472ZM114.181 23.5286C114.525 23.5286 114.839 23.4573 115.125 23.3148C115.41 23.1638 115.632 22.9332 115.791 22.623C115.959 22.3127 116.043 21.9228 116.043 21.4532V21.101L114.584 21.3148C113.988 21.3987 113.54 21.5412 113.238 21.7425C112.936 21.9353 112.785 22.1827 112.785 22.4846C112.785 22.7194 112.852 22.9165 112.986 23.0758C113.129 23.2267 113.305 23.3399 113.514 23.4154C113.732 23.4909 113.955 23.5286 114.181 23.5286ZM121.423 24.472C120.962 24.472 120.564 24.3923 120.228 24.233C119.893 24.0653 119.616 23.8431 119.398 23.5663C119.188 23.2812 119.029 22.9584 118.92 22.5978C118.819 22.2372 118.761 21.8557 118.744 21.4532C118.736 21.319 118.731 21.1932 118.731 21.0758C118.731 20.9584 118.736 20.8326 118.744 20.6985C118.761 20.3044 118.819 19.927 118.92 19.5664C119.029 19.2059 119.188 18.883 119.398 18.5979C119.616 18.3128 119.893 18.0906 120.228 17.9312C120.564 17.7635 120.962 17.6797 121.423 17.6797C121.918 17.6797 122.329 17.7677 122.656 17.9438C122.983 18.1199 123.251 18.3379 123.461 18.5979V15.7049C123.461 15.621 123.486 15.5539 123.536 15.5036C123.595 15.4449 123.666 15.4156 123.75 15.4156H124.354C124.438 15.4156 124.505 15.4449 124.555 15.5036C124.614 15.5539 124.643 15.621 124.643 15.7049V24.0569C124.643 24.1407 124.614 24.212 124.555 24.2707C124.505 24.321 124.438 24.3462 124.354 24.3462H123.788C123.696 24.3462 123.624 24.321 123.574 24.2707C123.524 24.212 123.499 24.1407 123.499 24.0569V23.5286C123.289 23.7969 123.016 24.0233 122.681 24.2078C122.346 24.3839 121.926 24.472 121.423 24.472ZM121.687 23.4531C122.107 23.4531 122.442 23.3567 122.694 23.1638C122.945 22.971 123.134 22.7278 123.26 22.4343C123.385 22.1324 123.452 21.8263 123.461 21.5161C123.469 21.3819 123.473 21.2226 123.473 21.0381C123.473 20.8452 123.469 20.6817 123.461 20.5475C123.452 20.254 123.381 19.9647 123.247 19.6796C123.121 19.3945 122.928 19.1597 122.668 18.9753C122.417 18.7908 122.09 18.6985 121.687 18.6985C121.26 18.6985 120.92 18.795 120.668 18.9878C120.417 19.1723 120.237 19.4197 120.128 19.7299C120.019 20.0318 119.956 20.3589 119.939 20.7111C119.931 20.9542 119.931 21.1974 119.939 21.4406C119.956 21.7928 120.019 22.124 120.128 22.4343C120.237 22.7362 120.417 22.9835 120.668 23.1764C120.92 23.3609 121.26 23.4531 121.687 23.4531ZM131.542 24.3462C131.416 24.3462 131.316 24.3168 131.24 24.2581C131.173 24.1994 131.119 24.124 131.077 24.0317L128.75 18.1954C128.733 18.1535 128.725 18.1115 128.725 18.0696C128.725 17.9941 128.75 17.9313 128.8 17.8809C128.85 17.8306 128.913 17.8055 128.989 17.8055H129.593C129.685 17.8055 129.756 17.8306 129.806 17.8809C129.857 17.9313 129.886 17.9774 129.894 18.0193L131.819 22.9752L133.731 18.0193C133.748 17.9774 133.777 17.9313 133.819 17.8809C133.869 17.8306 133.94 17.8055 134.033 17.8055H134.649C134.716 17.8055 134.775 17.8306 134.825 17.8809C134.884 17.9313 134.913 17.9941 134.913 18.0696C134.913 18.1115 134.905 18.1535 134.888 18.1954L132.548 24.0317C132.515 24.124 132.46 24.1994 132.385 24.2581C132.318 24.3168 132.217 24.3462 132.083 24.3462H131.542ZM136.52 24.3462C136.436 24.3462 136.364 24.321 136.306 24.2707C136.255 24.212 136.23 24.1407 136.23 24.0569V18.0948C136.23 18.0109 136.255 17.9438 136.306 17.8935C136.364 17.8348 136.436 17.8055 136.52 17.8055H137.123C137.207 17.8055 137.274 17.8348 137.325 17.8935C137.375 17.9438 137.4 18.0109 137.4 18.0948V24.0569C137.4 24.1407 137.375 24.212 137.325 24.2707C137.274 24.321 137.207 24.3462 137.123 24.3462H136.52ZM136.419 16.5854C136.335 16.5854 136.264 16.5602 136.205 16.5099C136.155 16.4512 136.13 16.3799 136.13 16.2961V15.6168C136.13 15.533 136.155 15.4659 136.205 15.4156C136.264 15.3569 136.335 15.3275 136.419 15.3275H137.211C137.295 15.3275 137.362 15.3569 137.413 15.4156C137.471 15.4659 137.501 15.533 137.501 15.6168V16.2961C137.501 16.3799 137.471 16.4512 137.413 16.5099C137.362 16.5602 137.295 16.5854 137.211 16.5854H136.419ZM141.1 24.472C140.681 24.472 140.3 24.3881 139.956 24.2204C139.612 24.0527 139.335 23.8263 139.126 23.5412C138.916 23.2561 138.811 22.9332 138.811 22.5726C138.811 21.994 139.046 21.5328 139.516 21.189C139.985 20.8452 140.597 20.6188 141.352 20.5098L143.226 20.2457V19.8809C143.226 19.4784 143.109 19.1639 142.874 18.9375C142.648 18.7111 142.274 18.5979 141.754 18.5979C141.377 18.5979 141.071 18.6734 140.836 18.8243C140.61 18.9753 140.451 19.1681 140.358 19.4029C140.308 19.5287 140.22 19.5916 140.094 19.5916H139.528C139.436 19.5916 139.365 19.5664 139.314 19.5161C139.272 19.4574 139.251 19.3903 139.251 19.3149C139.251 19.1891 139.298 19.0339 139.39 18.8495C139.49 18.665 139.641 18.4847 139.843 18.3086C140.044 18.1325 140.3 17.9858 140.61 17.8684C140.928 17.7426 141.314 17.6797 141.767 17.6797C142.27 17.6797 142.694 17.7468 143.037 17.8809C143.381 18.0067 143.65 18.1786 143.842 18.3966C144.044 18.6147 144.186 18.862 144.27 19.1388C144.362 19.4155 144.408 19.6964 144.408 19.9815V24.0569C144.408 24.1407 144.379 24.212 144.32 24.2707C144.27 24.321 144.203 24.3462 144.119 24.3462H143.541C143.448 24.3462 143.377 24.321 143.327 24.2707C143.276 24.212 143.251 24.1407 143.251 24.0569V23.516C143.142 23.667 142.996 23.8179 142.811 23.9688C142.627 24.1114 142.396 24.233 142.119 24.3336C141.843 24.4259 141.503 24.472 141.1 24.472ZM141.365 23.5286C141.708 23.5286 142.023 23.4573 142.308 23.3148C142.593 23.1638 142.815 22.9332 142.975 22.623C143.142 22.3127 143.226 21.9228 143.226 21.4532V21.101L141.767 21.3148C141.172 21.3987 140.723 21.5412 140.421 21.7425C140.119 21.9353 139.968 22.1827 139.968 22.4846C139.968 22.7194 140.035 22.9165 140.17 23.0758C140.312 23.2267 140.488 23.3399 140.698 23.4154C140.916 23.4909 141.138 23.5286 141.365 23.5286Z" fill="white"/>
<path d="M73.4661 45.2851C72.404 45.2851 71.4871 45.1118 70.7157 44.7652C69.9554 44.4075 69.3628 43.8931 68.9379 43.2223C68.5243 42.5403 68.295 41.7129 68.2503 40.7402C68.2391 40.2594 68.2336 39.7507 68.2336 39.214C68.2336 38.6662 68.2391 38.1462 68.2503 37.6543C68.295 36.7039 68.5298 35.8989 68.9547 35.2393C69.3796 34.5796 69.9777 34.0765 70.7492 33.7299C71.5207 33.3833 72.4263 33.21 73.4661 33.21C74.3047 33.21 75.0482 33.3162 75.6967 33.5286C76.3452 33.7299 76.8874 34.0038 77.3235 34.3504C77.7707 34.697 78.1061 35.0771 78.3298 35.4908C78.5645 35.9045 78.6875 36.3126 78.6987 36.7151C78.7099 36.8157 78.6764 36.8996 78.5981 36.9667C78.531 37.0338 78.4471 37.0673 78.3465 37.0673H75.8979C75.775 37.0673 75.6799 37.0505 75.6128 37.017C75.5569 36.9723 75.5066 36.9108 75.4619 36.8325C75.3836 36.6648 75.2662 36.4915 75.1097 36.3126C74.9644 36.1225 74.7575 35.9604 74.4892 35.8262C74.232 35.6921 73.891 35.625 73.4661 35.625C72.8288 35.625 72.3257 35.7927 71.9567 36.1281C71.599 36.4635 71.4033 37.0002 71.3697 37.7382C71.3362 38.6997 71.3362 39.6724 71.3697 40.6563C71.4033 41.439 71.6101 42.0036 71.9903 42.3502C72.3704 42.6968 72.8736 42.8701 73.4997 42.8701C73.9245 42.8701 74.2991 42.7974 74.6233 42.6521C74.9588 42.5067 75.2215 42.2831 75.4116 41.9812C75.6017 41.6682 75.6967 41.2713 75.6967 40.7905V40.4718H74.1202C73.9972 40.4718 73.891 40.4327 73.8016 40.3544C73.7233 40.265 73.6842 40.1588 73.6842 40.0358V38.7947C73.6842 38.6717 73.7233 38.5711 73.8016 38.4929C73.891 38.4034 73.9972 38.3587 74.1202 38.3587H78.3465C78.4695 38.3587 78.5701 38.4034 78.6484 38.4929C78.7267 38.5711 78.7658 38.6717 78.7658 38.7947V40.7066C78.7658 41.6682 78.5478 42.49 78.1117 43.172C77.6757 43.854 77.0551 44.3795 76.2501 44.7485C75.4563 45.1063 74.5283 45.2851 73.4661 45.2851ZM84.6311 45.2851C83.6919 45.2851 82.8981 45.1342 82.2496 44.8323C81.6123 44.5304 81.1203 44.1 80.7737 43.5409C80.4383 42.9707 80.2482 42.2943 80.2035 41.5116C80.1923 41.288 80.1868 41.0365 80.1868 40.7569C80.1868 40.4662 80.1923 40.2147 80.2035 40.0022C80.2482 39.2084 80.4495 38.532 80.8073 37.9729C81.1651 37.4139 81.6626 36.9835 82.2999 36.6816C82.9484 36.3797 83.7255 36.2288 84.6311 36.2288C85.5479 36.2288 86.325 36.3797 86.9623 36.6816C87.6108 36.9835 88.1139 37.4139 88.4717 37.9729C88.8295 38.532 89.0307 39.2084 89.0754 40.0022C89.0866 40.2147 89.0922 40.4662 89.0922 40.7569C89.0922 41.0365 89.0866 41.288 89.0754 41.5116C89.0307 42.2943 88.835 42.9707 88.4884 43.5409C88.153 44.1 87.6611 44.5304 87.0126 44.8323C86.3753 45.1342 85.5815 45.2851 84.6311 45.2851ZM84.6311 43.2391C85.1342 43.2391 85.4976 43.0881 85.7212 42.7862C85.956 42.4844 86.0902 42.0316 86.1237 41.4278C86.1349 41.2601 86.1405 41.0365 86.1405 40.7569C86.1405 40.4774 86.1349 40.2538 86.1237 40.0861C86.0902 39.4935 85.956 39.0463 85.7212 38.7444C85.4976 38.4314 85.1342 38.2748 84.6311 38.2748C84.1391 38.2748 83.7758 38.4314 83.541 38.7444C83.3062 39.0463 83.1776 39.4935 83.1552 40.0861C83.1441 40.2538 83.1385 40.4774 83.1385 40.7569C83.1385 41.0365 83.1441 41.2601 83.1552 41.4278C83.1776 42.0316 83.3062 42.4844 83.541 42.7862C83.7758 43.0881 84.1391 43.2391 84.6311 43.2391ZM94.8674 45.2851C93.9282 45.2851 93.1343 45.1342 92.4859 44.8323C91.8486 44.5304 91.3566 44.1 91.01 43.5409C90.6746 42.9707 90.4845 42.2943 90.4398 41.5116C90.4286 41.288 90.423 41.0365 90.423 40.7569C90.423 40.4662 90.4286 40.2147 90.4398 40.0022C90.4845 39.2084 90.6858 38.532 91.0435 37.9729C91.4013 37.4139 91.8989 36.9835 92.5362 36.6816C93.1847 36.3797 93.9617 36.2288 94.8674 36.2288C95.7842 36.2288 96.5612 36.3797 97.1985 36.6816C97.847 36.9835 98.3501 37.4139 98.7079 37.9729C99.0657 38.532 99.267 39.2084 99.3117 40.0022C99.3229 40.2147 99.3285 40.4662 99.3285 40.7569C99.3285 41.0365 99.3229 41.288 99.3117 41.5116C99.267 42.2943 99.0713 42.9707 98.7247 43.5409C98.3893 44.1 97.8973 44.5304 97.2488 44.8323C96.6115 45.1342 95.8177 45.2851 94.8674 45.2851ZM94.8674 43.2391C95.3705 43.2391 95.7339 43.0881 95.9575 42.7862C96.1923 42.4844 96.3264 42.0316 96.36 41.4278C96.3712 41.2601 96.3768 41.0365 96.3768 40.7569C96.3768 40.4774 96.3712 40.2538 96.36 40.0861C96.3264 39.4935 96.1923 39.0463 95.9575 38.7444C95.7339 38.4314 95.3705 38.2748 94.8674 38.2748C94.3754 38.2748 94.012 38.4314 93.7772 38.7444C93.5424 39.0463 93.4139 39.4935 93.3915 40.0861C93.3803 40.2538 93.3747 40.4774 93.3747 40.7569C93.3747 41.0365 93.3803 41.2601 93.3915 41.4278C93.4139 42.0316 93.5424 42.4844 93.7772 42.7862C94.012 43.0881 94.3754 43.2391 94.8674 43.2391ZM105.255 48.8071C104.394 48.8071 103.678 48.6953 103.108 48.4716C102.549 48.248 102.102 47.9797 101.766 47.6666C101.442 47.3536 101.207 47.0405 101.062 46.7275C100.916 46.4256 100.838 46.1852 100.827 46.0063C100.816 45.8833 100.855 45.7827 100.944 45.7044C101.034 45.6262 101.14 45.587 101.263 45.587H103.393C103.494 45.587 103.577 45.6094 103.645 45.6541C103.723 45.71 103.784 45.7995 103.829 45.9224C103.885 46.0454 103.958 46.174 104.047 46.3082C104.148 46.4423 104.282 46.5486 104.45 46.6268C104.628 46.7163 104.869 46.761 105.171 46.761C105.506 46.761 105.786 46.7051 106.009 46.5933C106.233 46.4927 106.401 46.3194 106.512 46.0734C106.624 45.8386 106.68 45.5199 106.68 45.1174V43.9938C106.423 44.2733 106.093 44.5025 105.691 44.6814C105.288 44.8491 104.802 44.9329 104.232 44.9329C103.661 44.9329 103.158 44.8491 102.722 44.6814C102.286 44.5137 101.923 44.2621 101.632 43.9267C101.341 43.5913 101.112 43.1832 100.944 42.7024C100.788 42.2216 100.693 41.6682 100.659 41.0421C100.648 40.7514 100.648 40.4607 100.659 40.17C100.693 39.5662 100.788 39.0239 100.944 38.5432C101.101 38.0624 101.325 37.6487 101.615 37.3021C101.917 36.9555 102.286 36.6928 102.722 36.5139C103.158 36.3238 103.661 36.2288 104.232 36.2288C104.835 36.2288 105.35 36.3462 105.774 36.5809C106.211 36.8046 106.568 37.0897 106.848 37.4363V36.8157C106.848 36.7039 106.887 36.6089 106.965 36.5306C107.043 36.4412 107.144 36.3965 107.267 36.3965H109.196C109.319 36.3965 109.419 36.4412 109.498 36.5306C109.587 36.6089 109.632 36.7039 109.632 36.8157V44.8826C109.632 45.7324 109.459 46.4479 109.112 47.0293C108.765 47.6107 108.268 48.0524 107.619 48.3543C106.971 48.6561 106.183 48.8071 105.255 48.8071ZM105.137 42.7527C105.495 42.7527 105.786 42.6744 106.009 42.5179C106.233 42.3614 106.395 42.1601 106.496 41.9142C106.607 41.6682 106.669 41.4054 106.68 41.1259C106.691 41.0029 106.697 40.8296 106.697 40.606C106.697 40.3824 106.691 40.2147 106.68 40.1029C106.669 39.8122 106.607 39.5438 106.496 39.2979C106.395 39.0519 106.233 38.8562 106.009 38.7109C105.786 38.5543 105.495 38.4761 105.137 38.4761C104.768 38.4761 104.472 38.5543 104.248 38.7109C104.036 38.8674 103.879 39.0798 103.779 39.3482C103.689 39.6165 103.633 39.9128 103.611 40.237C103.6 40.483 103.6 40.7346 103.611 40.9917C103.633 41.316 103.689 41.6123 103.779 41.8806C103.879 42.1489 104.036 42.3614 104.248 42.5179C104.472 42.6744 104.768 42.7527 105.137 42.7527ZM112.027 45.1174C111.904 45.1174 111.803 45.0783 111.725 45C111.646 44.9218 111.607 44.8211 111.607 44.6982V33.6292C111.607 33.5062 111.646 33.4056 111.725 33.3274C111.803 33.2491 111.904 33.21 112.027 33.21H114.006C114.129 33.21 114.229 33.2491 114.307 33.3274C114.386 33.4056 114.425 33.5062 114.425 33.6292V44.6982C114.425 44.8211 114.386 44.9218 114.307 45C114.229 45.0783 114.129 45.1174 114.006 45.1174H112.027ZM120.431 45.2851C119.112 45.2851 118.061 44.9274 117.278 44.2118C116.495 43.4962 116.087 42.4341 116.054 41.0253C116.054 40.947 116.054 40.8464 116.054 40.7234C116.054 40.6004 116.054 40.5054 116.054 40.4383C116.087 39.555 116.283 38.8003 116.641 38.1742C117.01 37.5369 117.513 37.0561 118.15 36.7319C118.799 36.3965 119.553 36.2288 120.414 36.2288C121.398 36.2288 122.209 36.4244 122.846 36.8157C123.495 37.2071 123.981 37.7382 124.305 38.409C124.629 39.0798 124.792 39.8457 124.792 40.7066V41.1091C124.792 41.2321 124.747 41.3328 124.657 41.411C124.579 41.4893 124.484 41.5284 124.372 41.5284H119.006C119.006 41.5396 119.006 41.5564 119.006 41.5787C119.006 41.6011 119.006 41.6235 119.006 41.6458C119.017 41.9701 119.073 42.2663 119.173 42.5347C119.274 42.803 119.43 43.0155 119.643 43.172C119.855 43.3285 120.112 43.4068 120.414 43.4068C120.638 43.4068 120.822 43.3732 120.968 43.3062C121.124 43.2279 121.253 43.144 121.353 43.0546C121.454 42.954 121.532 42.8701 121.588 42.803C121.689 42.6912 121.767 42.6241 121.823 42.6018C121.89 42.5682 121.991 42.5515 122.125 42.5515H124.205C124.316 42.5515 124.406 42.585 124.473 42.6521C124.551 42.708 124.585 42.7918 124.574 42.9036C124.562 43.0937 124.467 43.3229 124.288 43.5913C124.11 43.8596 123.847 44.1279 123.5 44.3963C123.165 44.6534 122.74 44.8659 122.226 45.0336C121.711 45.2013 121.113 45.2851 120.431 45.2851ZM119.006 39.8681H121.84V39.8345C121.84 39.4768 121.784 39.1637 121.672 38.8954C121.572 38.627 121.409 38.4202 121.186 38.2748C120.973 38.1295 120.716 38.0568 120.414 38.0568C120.112 38.0568 119.855 38.1295 119.643 38.2748C119.442 38.4202 119.285 38.627 119.173 38.8954C119.061 39.1637 119.006 39.4768 119.006 39.8345V39.8681ZM130.538 45.1174C130.415 45.1174 130.314 45.0783 130.236 45C130.158 44.9218 130.119 44.8211 130.119 44.6982V33.7969C130.119 33.674 130.158 33.5733 130.236 33.4951C130.314 33.4168 130.415 33.3777 130.538 33.3777H135.234C136.162 33.3777 136.967 33.523 137.649 33.8137C138.342 34.0932 138.879 34.5181 139.259 35.0883C139.65 35.6585 139.846 36.3797 139.846 37.2518C139.846 38.1127 139.65 38.8227 139.259 39.3817C138.879 39.9408 138.342 40.3544 137.649 40.6228C136.967 40.8911 136.162 41.0253 135.234 41.0253H133.238V44.6982C133.238 44.8211 133.193 44.9218 133.104 45C133.026 45.0783 132.925 45.1174 132.802 45.1174H130.538ZM133.188 38.7109H135.15C135.631 38.7109 136.011 38.5879 136.291 38.3419C136.581 38.0959 136.727 37.7214 136.727 37.2182C136.727 36.7934 136.604 36.4356 136.358 36.1449C136.112 35.8542 135.709 35.7088 135.15 35.7088H133.188V38.7109ZM141.687 45.1174C141.564 45.1174 141.464 45.0783 141.385 45C141.307 44.9218 141.268 44.8211 141.268 44.6982V33.6292C141.268 33.5062 141.307 33.4056 141.385 33.3274C141.464 33.2491 141.564 33.21 141.687 33.21H143.666C143.789 33.21 143.89 33.2491 143.968 33.3274C144.046 33.4056 144.085 33.5062 144.085 33.6292V44.6982C144.085 44.8211 144.046 44.9218 143.968 45C143.89 45.0783 143.789 45.1174 143.666 45.1174H141.687ZM148.683 45.2851C148.079 45.2851 147.537 45.1733 147.056 44.9497C146.587 44.7149 146.212 44.4019 145.932 44.0105C145.653 43.6192 145.513 43.1776 145.513 42.6856C145.513 41.8918 145.837 41.2657 146.486 40.8073C147.134 40.3377 147.995 40.019 149.069 39.8513L151.165 39.5327V39.2979C151.165 38.8954 151.081 38.5879 150.913 38.3755C150.746 38.163 150.438 38.0568 149.991 38.0568C149.678 38.0568 149.421 38.1183 149.22 38.2413C149.029 38.3643 148.879 38.532 148.767 38.7444C148.666 38.8898 148.526 38.9624 148.347 38.9624H146.469C146.346 38.9624 146.251 38.9289 146.184 38.8618C146.117 38.7835 146.089 38.6941 146.1 38.5935C146.1 38.3922 146.173 38.163 146.318 37.9059C146.475 37.6375 146.709 37.3748 147.023 37.1176C147.336 36.8605 147.738 36.648 148.23 36.4803C148.722 36.3126 149.315 36.2288 150.008 36.2288C150.735 36.2288 151.355 36.3126 151.869 36.4803C152.384 36.648 152.797 36.8828 153.11 37.1847C153.435 37.4866 153.675 37.8444 153.832 38.2581C153.988 38.6606 154.066 39.1078 154.066 39.5997V44.6982C154.066 44.8211 154.022 44.9218 153.932 45C153.854 45.0783 153.759 45.1174 153.647 45.1174H151.702C151.579 45.1174 151.478 45.0783 151.4 45C151.322 44.9218 151.282 44.8211 151.282 44.6982V44.1112C151.137 44.3236 150.941 44.5193 150.695 44.6982C150.449 44.877 150.159 45.0168 149.823 45.1174C149.499 45.2292 149.119 45.2851 148.683 45.2851ZM149.471 43.3732C149.795 43.3732 150.086 43.3062 150.343 43.172C150.612 43.0266 150.818 42.8086 150.964 42.5179C151.12 42.216 151.199 41.8415 151.199 41.3942V41.1595L149.773 41.411C149.248 41.5005 148.862 41.6402 148.616 41.8303C148.381 42.0092 148.264 42.2216 148.264 42.4676C148.264 42.6577 148.32 42.8198 148.431 42.954C148.543 43.0881 148.688 43.1943 148.867 43.2726C149.046 43.3397 149.248 43.3732 149.471 43.3732ZM157.307 48.3039C157.207 48.3039 157.123 48.2704 157.056 48.2033C156.989 48.1362 156.955 48.0524 156.955 47.9517C156.955 47.9294 156.955 47.8958 156.955 47.8511C156.966 47.8176 156.983 47.7784 157.005 47.7337L158.314 44.5808L155.094 36.9667C155.06 36.8884 155.043 36.8213 155.043 36.7654C155.066 36.6648 155.11 36.5809 155.177 36.5139C155.244 36.4356 155.328 36.3965 155.429 36.3965H157.341C157.486 36.3965 157.592 36.4356 157.659 36.5139C157.738 36.5809 157.788 36.6592 157.81 36.7487L159.739 41.629L161.701 36.7487C161.746 36.6592 161.802 36.5809 161.869 36.5139C161.947 36.4356 162.059 36.3965 162.204 36.3965H164.083C164.183 36.3965 164.267 36.4356 164.334 36.5139C164.413 36.5809 164.452 36.6592 164.452 36.7487C164.452 36.8046 164.435 36.8772 164.401 36.9667L159.655 47.9517C159.622 48.0412 159.566 48.1195 159.488 48.1865C159.409 48.2648 159.297 48.3039 159.152 48.3039H157.307Z" fill="white"/>
<path d="M46.2742 29.1019L35.6301 18.2263L49.1725 26.1485L46.2742 29.1019ZM32.853 17.587C32.2256 17.9212 31.8066 18.5306 31.8066 19.3217V41.0091C31.8066 41.8001 32.2264 42.4095 32.853 42.7437L45.2286 30.1626L32.853 17.587ZM53.3587 28.6741L50.5183 26.9985L47.3499 30.1681L50.5183 33.3378L53.4166 31.6621C54.2847 30.9599 54.2847 29.3771 53.3587 28.6741ZM35.6309 42.1107L49.1733 34.1885L46.275 31.2351L35.6309 42.1107Z" fill="white"/>
</svg>
