<svg width="202" height="17" viewBox="0 0 202 17" fill="none" xmlns="http://www.w3.org/2000/svg">
<path d="M201.826 2.45944C201.102 2.77186 200.314 2.99672 199.502 3.08429C200.345 2.58355 200.976 1.79246 201.277 0.859439C200.486 1.32995 199.62 1.65987 198.716 1.83459C198.338 1.43086 197.882 1.10924 197.374 0.889753C196.867 0.670268 196.32 0.557627 195.767 0.558848C193.53 0.558848 191.731 2.37186 191.731 4.59671C191.731 4.90914 191.769 5.22157 191.831 5.52216C188.482 5.34701 185.495 3.74701 183.509 1.29731C183.147 1.91533 182.957 2.61903 182.96 3.33518C182.96 4.73636 183.672 5.97186 184.759 6.69849C184.118 6.67327 183.493 6.4973 182.934 6.18488V6.23458C182.934 8.19671 184.321 9.82275 186.169 10.1967C185.822 10.2869 185.465 10.333 185.106 10.334C184.844 10.334 184.595 10.308 184.344 10.2725C184.856 11.8725 186.344 13.0346 188.117 13.0724C186.73 14.1588 184.993 14.7979 183.106 14.7979C182.768 14.7979 182.456 14.7861 182.131 14.7482C183.921 15.8961 186.044 16.5588 188.33 16.5588C195.753 16.5588 199.814 10.4097 199.814 5.07245C199.814 4.89731 199.814 4.72216 199.802 4.54701C200.588 3.97186 201.277 3.25944 201.826 2.45944Z" fill="white"/>
<path d="M105.57 9.55834L106.014 6.66284H103.236V4.78384C103.236 3.99184 103.624 3.21934 104.868 3.21934H106.131V0.754338C106.131 0.754338 104.985 0.558838 103.889 0.558838C101.601 0.558838 100.106 1.94584 100.106 4.45634V6.66334H97.5623V9.55884H100.106V16.5588H103.236V9.55884L105.57 9.55834Z" fill="white"/>
<path d="M52.3623 16.5588H55.3623V5.45884H52.3623V16.5588ZM53.8623 0.558838C52.8623 0.558838 52.0623 1.35884 52.0623 2.35884C52.0623 3.35884 52.8623 4.15884 53.8623 4.15884C54.8623 4.15884 55.6623 3.35884 55.6623 2.35884C55.6623 1.35884 54.8623 0.558838 53.8623 0.558838ZM60.4623 7.15884V5.45884H57.4623V16.5588H60.4623V10.8588C60.4623 7.65884 64.5623 7.45884 64.5623 10.8588V16.5588H67.5623V9.75884C67.5623 4.35884 61.8623 4.55884 60.4623 7.15884Z" fill="white"/>
<path d="M144.131 0.558838C141.957 0.558838 141.686 0.569339 140.834 0.605344C139.98 0.647349 139.402 0.779866 138.892 0.97789C138.358 1.17943 137.874 1.49496 137.475 1.90251C137.066 2.30095 136.751 2.78468 136.55 3.31918C136.352 3.82925 136.22 4.40732 136.178 5.26193C136.139 6.11353 136.131 6.38407 136.131 8.55884C136.131 10.7336 136.142 11.0046 136.178 11.8558C136.22 12.7079 136.352 13.2884 136.55 13.7985C136.752 14.3323 137.067 14.8158 137.475 15.2152C137.873 15.6238 138.357 15.9396 138.892 16.1398C139.402 16.3353 139.982 16.4703 140.834 16.5123C141.686 16.5508 141.957 16.5588 144.131 16.5588C146.306 16.5588 146.577 16.5483 147.428 16.5123C148.28 16.4703 148.861 16.3348 149.371 16.1398C149.905 15.9383 150.388 15.6227 150.788 15.2152C151.197 14.8172 151.513 14.3333 151.712 13.7985C151.908 13.2884 152.043 12.7079 152.085 11.8558C152.123 11.0041 152.131 10.7336 152.131 8.55884C152.131 6.38407 152.121 6.11303 152.085 5.26193C152.043 4.40982 151.907 3.82625 151.712 3.31918C151.511 2.78535 151.195 2.30189 150.788 1.90251C150.39 1.4933 149.906 1.17751 149.371 0.97789C148.861 0.779866 148.28 0.647349 147.428 0.605344C146.577 0.566839 146.306 0.558838 144.131 0.558838ZM144.131 1.99902C146.267 1.99902 146.522 2.00952 147.366 2.04552C148.145 2.08203 148.569 2.21204 148.85 2.32206C149.198 2.45054 149.514 2.65503 149.773 2.92063C150.038 3.17858 150.241 3.49288 150.369 3.84025C150.479 4.12178 150.609 4.54584 150.645 5.32443C150.681 6.16854 150.692 6.42407 150.692 8.55934C150.692 10.6946 150.681 10.9501 150.642 11.7942C150.6 12.5728 150.47 12.9969 150.361 13.2784C150.209 13.654 150.04 13.9165 149.761 14.2005C149.501 14.4645 149.186 14.668 148.839 14.7966C148.561 14.9066 148.131 15.0366 147.349 15.0732C146.501 15.1092 146.251 15.1197 144.109 15.1197C141.968 15.1197 141.719 15.1092 140.869 15.0702C140.09 15.0281 139.661 14.8981 139.379 14.7886C138.999 14.6371 138.739 14.4681 138.46 14.189C138.178 13.9075 137.999 13.6395 137.861 13.2669C137.749 12.9889 137.621 12.5588 137.58 11.7772C137.551 10.9386 137.538 10.6786 137.538 8.54734C137.538 6.41707 137.551 6.15654 137.58 5.30743C137.621 4.52583 137.749 4.09678 137.861 3.81775C137.999 3.4372 138.179 3.17717 138.46 2.89563C138.738 2.6171 138.999 2.43707 139.379 2.29606C139.661 2.18654 140.08 2.05653 140.861 2.01752C141.71 1.98702 141.96 1.97602 144.098 1.97602L144.131 1.99902ZM144.131 4.45282C143.592 4.45263 143.058 4.55872 142.559 4.76505C142.061 4.97138 141.608 5.27389 141.227 5.6553C140.845 6.03671 140.543 6.48954 140.337 6.98792C140.13 7.48629 140.024 8.02044 140.024 8.55984C140.024 9.09923 140.13 9.63338 140.337 10.1318C140.543 10.6301 140.845 11.083 141.227 11.4644C141.608 11.8458 142.061 12.1483 142.559 12.3546C143.058 12.561 143.592 12.667 144.131 12.6669C144.671 12.667 145.205 12.561 145.703 12.3546C146.202 12.1483 146.654 11.8458 147.036 11.4644C147.417 11.083 147.72 10.6301 147.926 10.1318C148.132 9.63338 148.239 9.09923 148.238 8.55984C148.239 8.02044 148.132 7.48629 147.926 6.98792C147.72 6.48954 147.417 6.03671 147.036 5.6553C146.654 5.27389 146.202 4.97138 145.703 4.76505C145.205 4.55872 144.671 4.45263 144.131 4.45282ZM144.131 11.2267C142.657 11.2267 141.465 10.034 141.465 8.55984C141.465 7.08565 142.657 5.893 144.131 5.893C145.606 5.893 146.798 7.08565 146.798 8.55984C146.798 10.034 145.606 11.2267 144.131 11.2267ZM149.364 4.2888C149.364 4.54367 149.262 4.788 149.082 4.96813C148.902 5.14825 148.657 5.24942 148.402 5.24942C148.276 5.24942 148.152 5.2246 148.035 5.17638C147.919 5.12815 147.813 5.05747 147.724 4.96836C147.635 4.87925 147.564 4.77346 147.516 4.65704C147.468 4.54061 147.443 4.41582 147.443 4.2898C147.443 4.16379 147.468 4.039 147.516 3.92257C147.564 3.80615 147.635 3.70036 147.724 3.61125C147.813 3.52214 147.919 3.45146 148.035 3.40323C148.152 3.35501 148.276 3.33018 148.402 3.33018C148.931 3.33018 149.364 3.76024 149.364 4.2888Z" fill="white"/>
<path d="M22.0622 8.48989C22.0622 8.43572 22.0622 8.37416 22.0597 8.30276C22.0572 8.10331 22.0523 7.87924 22.0474 7.6404C22.0277 6.95342 21.9932 6.2689 21.9391 5.62378C21.8652 4.73489 21.7568 3.99374 21.6091 3.43726C21.4532 2.85653 21.1476 2.32689 20.7229 1.90127C20.2981 1.47566 19.7691 1.16899 19.1887 1.0119C18.4918 0.824766 17.1277 0.709038 15.2071 0.637631C14.2936 0.603159 13.3161 0.580998 12.3386 0.568687C11.9963 0.563762 11.6787 0.5613 11.393 0.558838H10.6691C10.3835 0.5613 10.0659 0.563762 9.72361 0.568687C8.74608 0.580998 7.76854 0.603159 6.85503 0.637631C4.93444 0.7115 3.56787 0.827228 2.8735 1.0119C2.29289 1.1686 1.76367 1.47515 1.33886 1.90082C0.914051 2.32649 0.608581 2.85634 0.453063 3.43726C0.302862 3.99374 0.196984 4.73489 0.123115 5.62378C0.0689443 6.2689 0.0344721 6.95342 0.0147737 7.6404C0.00738685 7.87924 0.00492455 8.10331 0.00246226 8.30276C0.00246226 8.37416 0 8.43572 0 8.48989V8.62778C0 8.68195 -3.76083e-08 8.74351 0.00246226 8.81492C0.00492455 9.01436 0.00984915 9.23843 0.0147737 9.47727C0.0344721 10.1643 0.0689443 10.8488 0.123115 11.4939C0.196984 12.3828 0.305325 13.1239 0.453063 13.6804C0.768236 14.8599 1.69406 15.7906 2.8735 16.1058C3.56787 16.2929 4.93444 16.4086 6.85503 16.48C7.76854 16.5145 8.74608 16.5367 9.72361 16.549C10.0659 16.5539 10.3835 16.5564 10.6691 16.5588H11.393C11.6787 16.5564 11.9963 16.5539 12.3386 16.549C13.3161 16.5367 14.2936 16.5145 15.2071 16.48C17.1277 16.4062 18.4943 16.2904 19.1887 16.1058C20.3681 15.7906 21.2939 14.8623 21.6091 13.6804C21.7593 13.1239 21.8652 12.3828 21.9391 11.4939C21.9932 10.8488 22.0277 10.1643 22.0474 9.47727C22.0548 9.23843 22.0572 9.01436 22.0597 8.81492C22.0597 8.74351 22.0622 8.68195 22.0622 8.62778V8.48989ZM20.2893 8.61793C20.2893 8.66964 20.2893 8.72627 20.2869 8.79276C20.2844 8.98481 20.2795 9.19657 20.2745 9.42557C20.2573 10.0805 20.2228 10.7355 20.1711 11.3437C20.1046 12.1366 20.0111 12.7866 19.8954 13.2224C19.7427 13.7912 19.2945 14.2418 18.7282 14.392C18.2111 14.5299 16.9086 14.6407 15.1382 14.7072C14.2419 14.7417 13.2767 14.7638 12.3139 14.7761C11.9766 14.7811 11.6639 14.7835 11.3832 14.7835H10.679L9.74823 14.7761C8.78547 14.7638 7.82271 14.7417 6.92398 14.7072C5.15359 14.6382 3.84857 14.5299 3.33395 14.392C2.76762 14.2394 2.31948 13.7912 2.16682 13.2224C2.05109 12.7866 1.95753 12.1366 1.89104 11.3437C1.83934 10.7355 1.80733 10.0805 1.78763 9.42557C1.78024 9.19657 1.77778 8.98235 1.77532 8.79276C1.77532 8.72627 1.77285 8.66718 1.77285 8.61793V8.49974C1.77285 8.44803 1.77285 8.3914 1.77532 8.32492C1.77778 8.13286 1.7827 7.9211 1.78763 7.69211C1.80486 7.03714 1.83934 6.38217 1.89104 5.77398C1.95753 4.98112 2.05109 4.33108 2.16682 3.89525C2.31948 3.32646 2.76762 2.87586 3.33395 2.72566C3.85103 2.58777 5.15359 2.47697 6.92398 2.41048C7.82025 2.37601 8.78547 2.35385 9.74823 2.34154C10.0856 2.33662 10.3983 2.33415 10.679 2.33415H11.3832L12.3139 2.34154C13.2767 2.35385 14.2395 2.37601 15.1382 2.41048C16.9086 2.47943 18.2136 2.58777 18.7282 2.72566C19.2945 2.87832 19.7427 3.32646 19.8954 3.89525C20.0111 4.33108 20.1046 4.98112 20.1711 5.77398C20.2228 6.38217 20.2548 7.03714 20.2745 7.69211C20.2819 7.9211 20.2844 8.13532 20.2869 8.32492C20.2869 8.3914 20.2893 8.4505 20.2893 8.49974V8.61793ZM8.83964 11.8583L14.5522 8.53421L8.83964 5.25936V11.8583Z" fill="white"/>
</svg>
