<svg width="96" height="17" viewBox="0 0 96 17" fill="none" xmlns="http://www.w3.org/2000/svg">
<path d="M0.704545 2.875V1.36364H9.71023V2.875H6.07955V13H4.32955V2.875H0.704545ZM14.0597 13.1761C13.1998 13.1761 12.4593 12.9924 11.8381 12.625C11.2206 12.2538 10.7434 11.733 10.4062 11.0625C10.0729 10.3883 9.90625 9.59848 9.90625 8.69318C9.90625 7.79924 10.0729 7.01136 10.4062 6.32955C10.7434 5.64773 11.2131 5.11553 11.8153 4.73295C12.4214 4.35038 13.1297 4.15909 13.9403 4.15909C14.4328 4.15909 14.91 4.24053 15.3722 4.40341C15.8343 4.56629 16.2491 4.82197 16.6165 5.17045C16.9839 5.51894 17.2737 5.97159 17.4858 6.52841C17.6979 7.08144 17.804 7.75379 17.804 8.54545V9.14773H10.8665V7.875H16.1392C16.1392 7.42803 16.0483 7.0322 15.8665 6.6875C15.6847 6.33902 15.429 6.06439 15.0994 5.86364C14.7737 5.66288 14.3911 5.5625 13.9517 5.5625C13.4744 5.5625 13.0578 5.67992 12.7017 5.91477C12.3494 6.14583 12.0767 6.44886 11.8835 6.82386C11.6941 7.19508 11.5994 7.59848 11.5994 8.03409V9.02841C11.5994 9.61174 11.7017 10.108 11.9062 10.517C12.1146 10.9261 12.4044 11.2386 12.7756 11.4545C13.1468 11.6667 13.5805 11.7727 14.0767 11.7727C14.3987 11.7727 14.6922 11.7273 14.9574 11.6364C15.2225 11.5417 15.4517 11.4015 15.6449 11.2159C15.8381 11.0303 15.9858 10.8011 16.0881 10.5284L17.696 10.8182C17.5672 11.2917 17.3362 11.7064 17.0028 12.0625C16.6733 12.4148 16.2585 12.6894 15.7585 12.8864C15.2623 13.0795 14.696 13.1761 14.0597 13.1761ZM26.2287 6.40341L24.6889 6.67614C24.6245 6.47917 24.5223 6.29167 24.3821 6.11364C24.2457 5.93561 24.0601 5.78977 23.8253 5.67614C23.5904 5.5625 23.2969 5.50568 22.9446 5.50568C22.4635 5.50568 22.062 5.61364 21.7401 5.82955C21.4181 6.04167 21.2571 6.31629 21.2571 6.65341C21.2571 6.94508 21.3651 7.17992 21.581 7.35795C21.7969 7.53598 22.1454 7.68182 22.6264 7.79545L24.0128 8.11364C24.8158 8.29924 25.4143 8.58523 25.8082 8.97159C26.2022 9.35795 26.3991 9.85985 26.3991 10.4773C26.3991 11 26.2476 11.4659 25.9446 11.875C25.6454 12.2803 25.2268 12.5985 24.6889 12.8295C24.1548 13.0606 23.5355 13.1761 22.831 13.1761C21.8537 13.1761 21.0563 12.9678 20.4389 12.5511C19.8215 12.1307 19.4427 11.5341 19.3026 10.7614L20.9446 10.5114C21.0469 10.9394 21.2571 11.2633 21.5753 11.483C21.8935 11.6989 22.3082 11.8068 22.8196 11.8068C23.3764 11.8068 23.8215 11.6913 24.1548 11.4602C24.4882 11.2254 24.6548 10.9394 24.6548 10.6023C24.6548 10.3295 24.5526 10.1004 24.348 9.91477C24.1473 9.72917 23.8385 9.58902 23.4219 9.49432L21.9446 9.17045C21.1302 8.98485 20.5279 8.68939 20.1378 8.28409C19.7514 7.87879 19.5582 7.36553 19.5582 6.74432C19.5582 6.22917 19.7022 5.77841 19.9901 5.39205C20.2779 5.00568 20.6757 4.70455 21.1832 4.48864C21.6908 4.26894 22.2723 4.15909 22.9276 4.15909C23.8707 4.15909 24.6132 4.36364 25.1548 4.77273C25.6965 5.17803 26.0545 5.72159 26.2287 6.40341ZM32.3409 4.27273V5.63636H27.5739V4.27273H32.3409ZM28.8523 2.18182H30.5511V10.4375C30.5511 10.767 30.6004 11.0152 30.6989 11.1818C30.7973 11.3447 30.9242 11.4564 31.0795 11.517C31.2386 11.5739 31.411 11.6023 31.5966 11.6023C31.733 11.6023 31.8523 11.5928 31.9545 11.5739C32.0568 11.5549 32.1364 11.5398 32.1932 11.5284L32.5 12.9318C32.4015 12.9697 32.2614 13.0076 32.0795 13.0455C31.8977 13.0871 31.6705 13.1098 31.3977 13.1136C30.9508 13.1212 30.5341 13.0417 30.1477 12.875C29.7614 12.7083 29.4489 12.4508 29.2102 12.1023C28.9716 11.7538 28.8523 11.3163 28.8523 10.7898V2.18182ZM36.7599 13.1932C36.2069 13.1932 35.7069 13.0909 35.2599 12.8864C34.813 12.678 34.4588 12.3769 34.1974 11.983C33.9399 11.589 33.8111 11.1061 33.8111 10.5341C33.8111 10.0417 33.9058 9.63636 34.0952 9.31818C34.2846 9 34.5402 8.74811 34.8622 8.5625C35.1842 8.37689 35.544 8.23674 35.9418 8.14205C36.3395 8.04735 36.7448 7.97538 37.1577 7.92614C37.6804 7.86553 38.1046 7.81629 38.4304 7.77841C38.7562 7.73674 38.9929 7.67045 39.1406 7.57955C39.2884 7.48864 39.3622 7.34091 39.3622 7.13636V7.09659C39.3622 6.60038 39.2221 6.21591 38.9418 5.94318C38.6652 5.67045 38.2524 5.53409 37.7031 5.53409C37.1312 5.53409 36.6804 5.66098 36.3509 5.91477C36.0251 6.16477 35.7997 6.44318 35.6747 6.75L34.0781 6.38636C34.2675 5.85606 34.544 5.42803 34.9077 5.10227C35.2751 4.77273 35.6974 4.53409 36.1747 4.38636C36.652 4.23485 37.1539 4.15909 37.6804 4.15909C38.0289 4.15909 38.3982 4.20076 38.7884 4.28409C39.1823 4.36364 39.5497 4.51136 39.8906 4.72727C40.2353 4.94318 40.5175 5.25189 40.7372 5.65341C40.9569 6.05114 41.0668 6.56818 41.0668 7.20455V13H39.4077V11.8068H39.3395C39.2296 12.0265 39.0649 12.2424 38.8452 12.4545C38.6255 12.6667 38.3433 12.8428 37.9986 12.983C37.6539 13.1231 37.241 13.1932 36.7599 13.1932ZM37.1293 11.8295C37.599 11.8295 38.0005 11.7367 38.3338 11.5511C38.6709 11.3655 38.9266 11.1231 39.1009 10.8239C39.2789 10.5208 39.3679 10.197 39.3679 9.85227V8.72727C39.3073 8.78788 39.1899 8.8447 39.0156 8.89773C38.8452 8.94697 38.6501 8.99053 38.4304 9.02841C38.2107 9.0625 37.9967 9.0947 37.7884 9.125C37.58 9.15152 37.4058 9.17424 37.2656 9.19318C36.9361 9.23485 36.6349 9.30492 36.3622 9.40341C36.0933 9.50189 35.8774 9.64394 35.7145 9.82955C35.5554 10.0114 35.4759 10.2538 35.4759 10.5568C35.4759 10.9773 35.6312 11.2955 35.9418 11.5114C36.2524 11.7235 36.6482 11.8295 37.1293 11.8295ZM43.3295 13V4.27273H44.9716V5.65909H45.0625C45.2216 5.18939 45.5019 4.82008 45.9034 4.55114C46.3087 4.27841 46.767 4.14205 47.2784 4.14205C47.3845 4.14205 47.5095 4.14583 47.6534 4.15341C47.8011 4.16098 47.9167 4.17045 48 4.18182V5.80682C47.9318 5.78788 47.8106 5.76705 47.6364 5.74432C47.4621 5.7178 47.2879 5.70455 47.1136 5.70455C46.7121 5.70455 46.3542 5.78977 46.0398 5.96023C45.7292 6.12689 45.483 6.35985 45.3011 6.65909C45.1193 6.95455 45.0284 7.29167 45.0284 7.67045V13H43.3295ZM57.3636 16.4545C56.6705 16.4545 56.0739 16.3636 55.5739 16.1818C55.0777 16 54.6723 15.7595 54.358 15.4602C54.0436 15.161 53.8087 14.8333 53.6534 14.4773L55.1136 13.875C55.2159 14.0417 55.3523 14.2178 55.5227 14.4034C55.697 14.5928 55.9318 14.7538 56.2273 14.8864C56.5265 15.0189 56.911 15.0852 57.3807 15.0852C58.0246 15.0852 58.5568 14.928 58.9773 14.6136C59.3977 14.303 59.608 13.8068 59.608 13.125V11.4091H59.5C59.3977 11.5947 59.25 11.8011 59.0568 12.0284C58.8674 12.2557 58.6061 12.4527 58.2727 12.6193C57.9394 12.786 57.5057 12.8693 56.9716 12.8693C56.2822 12.8693 55.661 12.7083 55.108 12.3864C54.5587 12.0606 54.1231 11.5814 53.8011 10.9489C53.483 10.3125 53.3239 9.5303 53.3239 8.60227C53.3239 7.67424 53.4811 6.87879 53.7955 6.21591C54.1136 5.55303 54.5492 5.04545 55.1023 4.69318C55.6553 4.33712 56.2822 4.15909 56.983 4.15909C57.5246 4.15909 57.9621 4.25 58.2955 4.43182C58.6288 4.60985 58.8883 4.81818 59.0739 5.05682C59.2633 5.29545 59.4091 5.50568 59.5114 5.6875H59.6364V4.27273H61.3011V13.1932C61.3011 13.9432 61.1269 14.5587 60.7784 15.0398C60.4299 15.5208 59.9583 15.8769 59.3636 16.108C58.7727 16.339 58.1061 16.4545 57.3636 16.4545ZM57.3466 11.4602C57.8352 11.4602 58.2481 11.3466 58.5852 11.1193C58.9261 10.8883 59.1837 10.5587 59.358 10.1307C59.536 9.69886 59.625 9.18182 59.625 8.57955C59.625 7.99242 59.5379 7.47538 59.3636 7.02841C59.1894 6.58144 58.9337 6.23295 58.5966 5.98295C58.2595 5.72917 57.8428 5.60227 57.3466 5.60227C56.8352 5.60227 56.4091 5.73485 56.0682 6C55.7273 6.26136 55.4697 6.61742 55.2955 7.06818C55.125 7.51894 55.0398 8.02273 55.0398 8.57955C55.0398 9.15152 55.1269 9.65341 55.3011 10.0852C55.4754 10.517 55.733 10.8542 56.0739 11.0966C56.4186 11.339 56.8428 11.4602 57.3466 11.4602ZM63.5795 13V4.27273H65.2216V5.65909H65.3125C65.4716 5.18939 65.7519 4.82008 66.1534 4.55114C66.5587 4.27841 67.017 4.14205 67.5284 4.14205C67.6345 4.14205 67.7595 4.14583 67.9034 4.15341C68.0511 4.16098 68.1667 4.17045 68.25 4.18182V5.80682C68.1818 5.78788 68.0606 5.76705 67.8864 5.74432C67.7121 5.7178 67.5379 5.70455 67.3636 5.70455C66.9621 5.70455 66.6042 5.78977 66.2898 5.96023C65.9792 6.12689 65.733 6.35985 65.5511 6.65909C65.3693 6.95455 65.2784 7.29167 65.2784 7.67045V13H63.5795ZM72.1818 13.1932C71.6288 13.1932 71.1288 13.0909 70.6818 12.8864C70.2348 12.678 69.8807 12.3769 69.6193 11.983C69.3617 11.589 69.233 11.1061 69.233 10.5341C69.233 10.0417 69.3277 9.63636 69.517 9.31818C69.7064 9 69.9621 8.74811 70.2841 8.5625C70.6061 8.37689 70.9659 8.23674 71.3636 8.14205C71.7614 8.04735 72.1667 7.97538 72.5795 7.92614C73.1023 7.86553 73.5265 7.81629 73.8523 7.77841C74.178 7.73674 74.4148 7.67045 74.5625 7.57955C74.7102 7.48864 74.7841 7.34091 74.7841 7.13636V7.09659C74.7841 6.60038 74.6439 6.21591 74.3636 5.94318C74.0871 5.67045 73.6742 5.53409 73.125 5.53409C72.553 5.53409 72.1023 5.66098 71.7727 5.91477C71.447 6.16477 71.2216 6.44318 71.0966 6.75L69.5 6.38636C69.6894 5.85606 69.9659 5.42803 70.3295 5.10227C70.697 4.77273 71.1193 4.53409 71.5966 4.38636C72.0739 4.23485 72.5758 4.15909 73.1023 4.15909C73.4508 4.15909 73.8201 4.20076 74.2102 4.28409C74.6042 4.36364 74.9716 4.51136 75.3125 4.72727C75.6572 4.94318 75.9394 5.25189 76.1591 5.65341C76.3788 6.05114 76.4886 6.56818 76.4886 7.20455V13H74.8295V11.8068H74.7614C74.6515 12.0265 74.4867 12.2424 74.267 12.4545C74.0473 12.6667 73.7652 12.8428 73.4205 12.983C73.0758 13.1231 72.6629 13.1932 72.1818 13.1932ZM72.5511 11.8295C73.0208 11.8295 73.4223 11.7367 73.7557 11.5511C74.0928 11.3655 74.3485 11.1231 74.5227 10.8239C74.7008 10.5208 74.7898 10.197 74.7898 9.85227V8.72727C74.7292 8.78788 74.6117 8.8447 74.4375 8.89773C74.267 8.94697 74.072 8.99053 73.8523 9.02841C73.6326 9.0625 73.4186 9.0947 73.2102 9.125C73.0019 9.15152 72.8277 9.17424 72.6875 9.19318C72.358 9.23485 72.0568 9.30492 71.7841 9.40341C71.5152 9.50189 71.2992 9.64394 71.1364 9.82955C70.9773 10.0114 70.8977 10.2538 70.8977 10.5568C70.8977 10.9773 71.053 11.2955 71.3636 11.5114C71.6742 11.7235 72.0701 11.8295 72.5511 11.8295ZM82.8253 4.27273V5.63636H78.0582V4.27273H82.8253ZM79.3366 2.18182H81.0355V10.4375C81.0355 10.767 81.0848 11.0152 81.1832 11.1818C81.2817 11.3447 81.4086 11.4564 81.5639 11.517C81.723 11.5739 81.8954 11.6023 82.081 11.6023C82.2173 11.6023 82.3366 11.5928 82.4389 11.5739C82.5412 11.5549 82.6207 11.5398 82.6776 11.5284L82.9844 12.9318C82.8859 12.9697 82.7457 13.0076 82.5639 13.0455C82.3821 13.0871 82.1548 13.1098 81.8821 13.1136C81.4351 13.1212 81.0185 13.0417 80.6321 12.875C80.2457 12.7083 79.9332 12.4508 79.6946 12.1023C79.456 11.7538 79.3366 11.3163 79.3366 10.7898V2.18182ZM84.7045 13V4.27273H86.4034V13H84.7045ZM85.5625 2.92614C85.267 2.92614 85.0133 2.82765 84.8011 2.63068C84.5928 2.42992 84.4886 2.19129 84.4886 1.91477C84.4886 1.63447 84.5928 1.39583 84.8011 1.19886C85.0133 0.998106 85.267 0.897727 85.5625 0.897727C85.858 0.897727 86.1098 0.998106 86.3182 1.19886C86.5303 1.39583 86.6364 1.63447 86.6364 1.91477C86.6364 2.19129 86.5303 2.42992 86.3182 2.63068C86.1098 2.82765 85.858 2.92614 85.5625 2.92614ZM95.2287 6.40341L93.6889 6.67614C93.6245 6.47917 93.5223 6.29167 93.3821 6.11364C93.2457 5.93561 93.0601 5.78977 92.8253 5.67614C92.5904 5.5625 92.2969 5.50568 91.9446 5.50568C91.4635 5.50568 91.062 5.61364 90.7401 5.82955C90.4181 6.04167 90.2571 6.31629 90.2571 6.65341C90.2571 6.94508 90.3651 7.17992 90.581 7.35795C90.7969 7.53598 91.1454 7.68182 91.6264 7.79545L93.0128 8.11364C93.8158 8.29924 94.4143 8.58523 94.8082 8.97159C95.2022 9.35795 95.3991 9.85985 95.3991 10.4773C95.3991 11 95.2476 11.4659 94.9446 11.875C94.6454 12.2803 94.2268 12.5985 93.6889 12.8295C93.1548 13.0606 92.5355 13.1761 91.831 13.1761C90.8537 13.1761 90.0563 12.9678 89.4389 12.5511C88.8215 12.1307 88.4427 11.5341 88.3026 10.7614L89.9446 10.5114C90.0469 10.9394 90.2571 11.2633 90.5753 11.483C90.8935 11.6989 91.3082 11.8068 91.8196 11.8068C92.3764 11.8068 92.8215 11.6913 93.1548 11.4602C93.4882 11.2254 93.6548 10.9394 93.6548 10.6023C93.6548 10.3295 93.5526 10.1004 93.348 9.91477C93.1473 9.72917 92.8385 9.58902 92.4219 9.49432L90.9446 9.17045C90.1302 8.98485 89.5279 8.68939 89.1378 8.28409C88.7514 7.87879 88.5582 7.36553 88.5582 6.74432C88.5582 6.22917 88.7022 5.77841 88.9901 5.39205C89.2779 5.00568 89.6757 4.70455 90.1832 4.48864C90.6908 4.26894 91.2723 4.15909 91.9276 4.15909C92.8707 4.15909 93.6132 4.36364 94.1548 4.77273C94.6965 5.17803 95.0545 5.72159 95.2287 6.40341Z" fill="#F5F6FA"/>
</svg>
